# Blender 4.0.2
# www.blender.org
mtllib cross.mtl
o Cube
v 2.000000 1.000000 -22.699999
v 2.000000 0.300000 -22.000000
v 18.000000 1.000000 -22.700001
v 18.000000 0.300000 -22.000000
v 2.000000 1.700000 -22.000000
v 2.000000 1.000000 -21.299999
v 17.994221 1.694378 -22.006559
v 18.000000 1.000000 -21.300001
v 9.000000 1.000000 -21.000000
v 10.000000 2.000000 -22.000000
v 11.000000 1.000000 -23.000000
v 10.000000 0.000000 -22.000000
v 10.700000 1.000000 -32.000000
v 10.000000 0.300001 -32.000004
v 10.700001 0.999999 -1.999996
v 10.000001 0.299999 -1.999998
v 10.000000 1.700000 -32.000000
v 9.299999 1.000000 -32.000000
v 10.000001 1.699999 -1.999998
v 9.300001 0.999999 -1.999996
v 9.000000 1.000000 -23.000000
v 10.000000 2.000000 -22.000000
v 10.994221 0.994378 -21.006559
v 10.000000 0.000000 -22.000000
v 18.500000 1.000000 -23.100000
v 18.500000 -0.100000 -22.000000
v 18.500000 2.100000 -22.000000
v 18.500000 1.000000 -20.900000
v 20.000000 1.000000 -22.000000
v 1.500000 1.000000 -20.900000
v 1.500000 -0.100000 -22.000000
v 1.500000 2.100000 -22.000000
v 1.500000 1.000000 -23.100000
v 0.000000 1.000000 -22.000000
v 11.100001 0.999999 -1.499996
v 10.000001 -0.099999 -1.499998
v 10.000001 2.099999 -1.499996
v 8.900001 1.000000 -1.499996
v 10.000001 0.999999 0.000004
v 11.099999 1.000000 -32.500000
v 10.000000 -0.099998 -32.500000
v 10.000000 2.099999 -32.500000
v 8.900000 1.000000 -32.500000
v 9.999999 1.000000 -34.000000
v 10.000000 1.000000 -26.300001
v 10.000000 1.300000 -26.000000
v 10.000000 1.000000 -25.700001
v 10.000000 0.700000 -26.000000
v 7.849999 1.000000 -25.723909
v 8.000000 1.300000 -25.464102
v 8.150000 1.000000 -25.204294
v 8.000000 0.700000 -25.464102
v 6.276091 1.000000 -24.150000
v 6.535898 1.300000 -24.000000
v 6.795706 1.000000 -23.850000
v 6.535898 0.700000 -24.000000
v 5.700000 1.000000 -22.000000
v 6.000000 1.300000 -22.000000
v 6.300000 1.000000 -22.000000
v 6.000000 0.700000 -22.000000
v 6.276090 1.000000 -19.850000
v 6.535898 1.300000 -20.000000
v 6.795706 1.000000 -20.150000
v 6.535898 0.700000 -20.000000
v 7.849999 1.000000 -18.276091
v 7.999999 1.300000 -18.535898
v 8.150000 1.000000 -18.795706
v 7.999999 0.700000 -18.535898
v 10.000000 1.000000 -17.699999
v 10.000000 1.300000 -18.000000
v 10.000000 1.000000 -18.299999
v 10.000000 0.700000 -18.000000
v 12.150000 1.000000 -18.276091
v 12.000000 1.300000 -18.535898
v 11.849999 1.000000 -18.795706
v 12.000000 0.700000 -18.535898
v 13.723909 1.000000 -19.850000
v 13.464102 1.300000 -20.000000
v 13.204294 1.000000 -20.150002
v 13.464102 0.700000 -20.000000
v 14.300000 1.000000 -22.000000
v 14.000000 1.300000 -22.000000
v 13.700000 1.000000 -22.000000
v 14.000000 0.700000 -22.000000
v 13.723909 1.000000 -24.150000
v 13.464102 1.300000 -24.000000
v 13.204294 1.000000 -23.850000
v 13.464102 0.700000 -24.000000
v 12.150001 1.000000 -25.723909
v 12.000000 1.300000 -25.464102
v 11.850000 1.000000 -25.204294
v 12.000000 0.700000 -25.464102
vn 0.0303 -0.7068 -0.7068
vn 0.7071 -0.7071 0.0112
vn 0.6155 -0.6155 -0.4924
vn 0.6277 -0.6277 0.4603
vn 0.6277 0.6277 0.4603
vn -0.6277 0.6277 0.4603
vn -0.6277 -0.6277 0.4603
vn -0.6155 -0.6155 -0.4924
vn -0.7017 -0.7124 0.0107
vn -0.0303 -0.7068 0.7068
vn 0.4924 -0.6155 0.6155
vn -0.4603 -0.6277 0.6277
vn -0.4603 0.6277 0.6277
vn -0.4603 0.6277 -0.6277
vn -0.4603 -0.6277 -0.6277
vn 0.4924 -0.6155 -0.6155
vn -0.0270 -0.7202 -0.6932
vn -0.7069 -0.7069 -0.0236
vn -0.6155 -0.6155 0.4924
vn -0.6277 -0.6277 -0.4603
vn -0.6277 0.6277 -0.4603
vn 0.6277 0.6277 -0.4603
vn 0.6277 -0.6277 -0.4603
vn 0.6155 -0.6155 0.4924
vn 0.6961 -0.7176 -0.0215
vn -0.4924 -0.6155 -0.6155
vn 0.4603 -0.6277 -0.6277
vn 0.4603 0.6277 -0.6277
vn 0.4603 0.6277 0.6277
vn 0.4603 -0.6277 0.6277
vn -0.4924 -0.6155 0.6155
vn 0.0270 -0.7199 0.6936
vn -0.5012 0.6151 0.6086
vn 0.0288 0.7131 0.7005
vn 0.7071 0.7071 0.0107
vn 0.6155 0.6155 -0.4924
vn -0.6155 0.6155 -0.4924
vn -0.7071 0.7071 0.0112
vn -0.0270 0.7202 0.6932
vn 0.4924 0.6155 0.6155
vn 0.4924 0.6155 -0.6155
vn -0.0303 0.7068 -0.7068
vn -0.6961 0.7176 -0.0215
vn -0.6155 0.6155 0.4924
vn 0.6155 0.6155 0.4924
vn 0.7069 0.7069 -0.0236
vn 0.0270 0.7202 -0.6932
vn -0.4939 0.6124 -0.6173
vn -0.1862 0.6947 -0.6947
vn 0.1862 0.6947 0.6947
vn 0.1862 -0.6947 0.6947
vn -0.1862 -0.6947 -0.6947
vn -0.5086 0.6947 -0.5086
vn 0.5086 0.6947 0.5086
vn 0.5086 -0.6947 0.5086
vn -0.5086 -0.6947 -0.5086
vn -0.6947 0.6947 -0.1862
vn 0.6947 0.6947 0.1862
vn 0.6947 -0.6947 0.1862
vn -0.6947 -0.6947 -0.1862
vn -0.6947 0.6947 0.1862
vn 0.6947 0.6947 -0.1862
vn 0.6947 -0.6947 -0.1862
vn -0.6947 -0.6947 0.1862
vn -0.5086 0.6947 0.5086
vn 0.5086 0.6947 -0.5086
vn 0.5086 -0.6947 -0.5086
vn -0.5086 -0.6947 0.5086
vn -0.1862 0.6947 0.6947
vn 0.1862 0.6947 -0.6947
vn 0.1862 -0.6947 -0.6947
vn -0.1862 -0.6947 0.6947
vn 0.0270 -0.7202 -0.6932
vn 0.7018 -0.7123 0.0107
vn -0.7071 -0.7071 0.0112
vn -0.0270 -0.7202 0.6932
vn -0.0303 -0.7068 -0.7068
vn -0.6961 -0.7176 -0.0215
vn 0.7069 -0.7069 -0.0236
vn 0.0302 -0.7068 0.7068
vn -0.4924 0.6155 0.6155
vn 0.0280 0.7164 0.6972
vn 0.7058 0.7083 0.0106
vn -0.7017 0.7124 0.0107
vn -0.0303 0.7068 0.7068
vn -0.0270 0.7202 -0.6932
vn -0.7069 0.7069 -0.0236
vn 0.6961 0.7176 -0.0215
vn 0.0303 0.7064 -0.7071
vn -0.4872 0.6175 -0.6175
vt 0.000000 0.000000
vt 0.583333 0.500000
vt 0.500000 0.750000
vt 0.500000 0.500000
vt 0.583333 1.000000
vt 0.500000 1.000000
vt 0.500000 0.000000
vt 0.583333 0.250000
vt 0.500000 0.250000
vt 0.666667 0.750000
vt 0.583333 0.750000
vt 0.666667 0.000000
vt 0.583333 0.000000
vt 0.666667 0.250000
vt 0.750000 0.500000
vt 0.666667 0.500000
vt 0.750000 1.000000
vt 0.666667 1.000000
vt 0.750000 0.000000
vt 0.750000 0.250000
vt 0.833333 0.750000
vt 0.750000 0.750000
vt 0.833333 0.000000
vt 0.833333 0.250000
vt 0.833333 0.500000
vt 0.916667 0.750000
vt 0.916667 1.000000
vt 0.833333 1.000000
vt 0.916667 0.250000
vt 0.916667 0.500000
vt 1.000000 0.500000
vt 1.000000 1.000000
vt 1.000000 0.000000
vt 0.916667 0.000000
vt 1.000000 0.250000
vt 0.000000 0.500000
vt 0.083333 0.750000
vt 0.000000 0.750000
vt 0.000000 1.000000
vt 0.083333 0.000000
vt 0.000000 0.250000
vt 0.000000 0.000000
vt 0.083333 0.250000
vt 0.083333 0.500000
vt 0.166667 0.750000
vt 0.083333 1.000000
vt 0.166667 0.000000
vt 0.166667 0.250000
vt 0.250000 0.500000
vt 0.166667 0.500000
vt 0.250000 1.000000
vt 0.166667 1.000000
vt 0.250000 0.250000
vt 0.333333 0.500000
vt 0.250000 0.750000
vt 0.333333 0.750000
vt 0.333333 0.000000
vt 0.250000 0.000000
vt 0.333333 0.250000
vt 0.416667 0.750000
vt 0.416667 1.000000
vt 0.333333 1.000000
vt 0.416667 0.250000
vt 0.416667 0.500000
vt 0.416667 0.000000
vt 1.000000 0.750000
s 0
usemtl Material
f 4/1/1 11/1/1 3/1/1
f 16/1/2 23/1/2 15/1/2
f 15/1/3 36/1/3 16/1/3
f 36/1/4 35/1/4 39/1/4
f 37/1/5 39/1/5 35/1/5
f 37/1/6 38/1/6 39/1/6
f 36/1/7 39/1/7 38/1/7
f 36/1/8 20/1/8 16/1/8
f 16/1/9 9/1/9 24/1/9
f 2/1/10 9/1/10 6/1/10
f 6/1/11 31/1/11 2/1/11
f 31/1/12 30/1/12 34/1/12
f 32/1/13 34/1/13 30/1/13
f 32/1/14 33/1/14 34/1/14
f 31/1/15 34/1/15 33/1/15
f 31/1/16 1/1/16 2/1/16
f 2/1/17 21/1/17 24/1/17
f 14/1/18 21/1/18 18/1/18
f 14/1/19 43/1/19 41/1/19
f 41/1/20 43/1/20 44/1/20
f 42/1/21 44/1/21 43/1/21
f 42/1/22 40/1/22 44/1/22
f 41/1/23 44/1/23 40/1/23
f 14/1/24 40/1/24 13/1/24
f 14/1/25 11/1/25 24/1/25
f 3/1/26 26/1/26 4/1/26
f 26/1/27 25/1/27 29/1/27
f 27/1/28 29/1/28 25/1/28
f 27/1/29 28/1/29 29/1/29
f 26/1/30 29/1/30 28/1/30
f 26/1/31 8/1/31 4/1/31
f 4/1/32 23/1/32 24/1/32
f 8/1/33 27/1/33 7/1/33
f 7/1/34 23/1/34 8/1/34
f 23/1/35 19/1/35 15/1/35
f 37/1/36 15/1/36 19/1/36
f 19/1/37 38/1/37 37/1/37
f 19/1/38 9/1/38 20/1/38
f 5/1/39 9/1/39 22/1/39
f 5/1/40 30/1/40 6/1/40
f 1/1/41 32/1/41 5/1/41
f 5/1/42 21/1/42 1/1/42
f 17/1/43 21/1/43 22/1/43
f 42/1/44 18/1/44 17/1/44
f 13/1/45 42/1/45 17/1/45
f 17/1/46 11/1/46 13/1/46
f 7/1/47 11/1/47 22/1/47
f 7/1/48 25/1/48 3/1/48
f 49/2/49 46/3/49 45/4/49
f 46/3/50 51/5/50 47/6/50
f 47/7/51 52/8/51 48/9/51
f 52/8/52 45/4/52 48/9/52
f 49/2/53 54/10/53 50/11/53
f 54/10/54 51/5/54 50/11/54
f 55/12/55 52/8/55 51/13/55
f 56/14/56 49/2/56 52/8/56
f 57/15/57 54/10/57 53/16/57
f 54/10/58 59/17/58 55/18/58
f 59/19/59 56/14/59 55/12/59
f 60/20/60 53/16/60 56/14/60
f 57/15/61 62/21/61 58/22/61
f 62/21/62 59/17/62 58/22/62
f 63/23/63 60/20/63 59/19/63
f 64/24/64 57/15/64 60/20/64
f 61/25/65 66/26/65 62/21/65
f 62/21/66 67/27/66 63/28/66
f 63/23/67 68/29/67 64/24/67
f 64/24/68 65/30/68 61/25/68
f 69/31/69 66/26/69 65/30/69
f 66/26/70 71/32/70 67/27/70
f 71/33/71 68/29/71 67/34/71
f 72/35/72 65/30/72 68/29/72
f 69/36/50 74/37/50 70/38/50
f 74/37/49 71/39/49 70/38/49
f 75/40/52 72/41/52 71/42/52
f 76/43/51 69/36/51 72/41/51
f 73/44/54 78/45/54 74/37/54
f 78/45/53 75/46/53 74/37/53
f 79/47/56 76/43/56 75/40/56
f 80/48/55 73/44/55 76/43/55
f 81/49/58 78/45/58 77/50/58
f 78/45/57 83/51/57 79/52/57
f 79/47/60 84/53/60 80/48/60
f 84/53/59 77/50/59 80/48/59
f 85/54/62 82/55/62 81/49/62
f 86/56/61 83/51/61 82/55/61
f 87/57/64 84/53/64 83/58/64
f 88/59/63 81/49/63 84/53/63
f 85/54/66 90/60/66 86/56/66
f 86/56/65 91/61/65 87/62/65
f 87/57/68 92/63/68 88/59/68
f 92/63/67 85/54/67 88/59/67
f 45/4/70 90/60/70 89/64/70
f 46/3/69 91/61/69 90/60/69
f 47/7/72 92/63/72 91/65/72
f 48/9/71 89/64/71 92/63/71
f 4/1/73 24/1/73 11/1/73
f 16/1/74 24/1/74 23/1/74
f 15/1/3 35/1/3 36/1/3
f 36/1/8 38/1/8 20/1/8
f 16/1/75 20/1/75 9/1/75
f 2/1/76 24/1/76 9/1/76
f 6/1/11 30/1/11 31/1/11
f 31/1/16 33/1/16 1/1/16
f 2/1/77 1/1/77 21/1/77
f 14/1/78 24/1/78 21/1/78
f 14/1/19 18/1/19 43/1/19
f 14/1/24 41/1/24 40/1/24
f 14/1/79 13/1/79 11/1/79
f 3/1/26 25/1/26 26/1/26
f 26/1/31 28/1/31 8/1/31
f 4/1/80 8/1/80 23/1/80
f 8/1/81 28/1/81 27/1/81
f 7/1/82 22/1/82 23/1/82
f 23/1/83 22/1/83 19/1/83
f 37/1/36 35/1/36 15/1/36
f 19/1/37 20/1/37 38/1/37
f 19/1/84 22/1/84 9/1/84
f 5/1/85 6/1/85 9/1/85
f 5/1/40 32/1/40 30/1/40
f 1/1/41 33/1/41 32/1/41
f 5/1/86 22/1/86 21/1/86
f 17/1/87 18/1/87 21/1/87
f 42/1/44 43/1/44 18/1/44
f 13/1/45 40/1/45 42/1/45
f 17/1/88 22/1/88 11/1/88
f 7/1/89 3/1/89 11/1/89
f 7/1/90 27/1/90 25/1/90
f 49/2/49 50/11/49 46/3/49
f 46/3/50 50/11/50 51/5/50
f 47/7/51 51/13/51 52/8/51
f 52/8/52 49/2/52 45/4/52
f 49/2/53 53/16/53 54/10/53
f 54/10/54 55/18/54 51/5/54
f 55/12/55 56/14/55 52/8/55
f 56/14/56 53/16/56 49/2/56
f 57/15/57 58/22/57 54/10/57
f 54/10/58 58/22/58 59/17/58
f 59/19/59 60/20/59 56/14/59
f 60/20/60 57/15/60 53/16/60
f 57/15/61 61/25/61 62/21/61
f 62/21/62 63/28/62 59/17/62
f 63/23/63 64/24/63 60/20/63
f 64/24/64 61/25/64 57/15/64
f 61/25/65 65/30/65 66/26/65
f 62/21/66 66/26/66 67/27/66
f 63/23/67 67/34/67 68/29/67
f 64/24/68 68/29/68 65/30/68
f 69/31/69 70/66/69 66/26/69
f 66/26/70 70/66/70 71/32/70
f 71/33/71 72/35/71 68/29/71
f 72/35/72 69/31/72 65/30/72
f 69/36/50 73/44/50 74/37/50
f 74/37/49 75/46/49 71/39/49
f 75/40/52 76/43/52 72/41/52
f 76/43/51 73/44/51 69/36/51
f 73/44/54 77/50/54 78/45/54
f 78/45/53 79/52/53 75/46/53
f 79/47/56 80/48/56 76/43/56
f 80/48/55 77/50/55 73/44/55
f 81/49/58 82/55/58 78/45/58
f 78/45/57 82/55/57 83/51/57
f 79/47/60 83/58/60 84/53/60
f 84/53/59 81/49/59 77/50/59
f 85/54/62 86/56/62 82/55/62
f 86/56/61 87/62/61 83/51/61
f 87/57/64 88/59/64 84/53/64
f 88/59/63 85/54/63 81/49/63
f 85/54/66 89/64/66 90/60/66
f 86/56/65 90/60/65 91/61/65
f 87/57/68 91/65/68 92/63/68
f 92/63/67 89/64/67 85/54/67
f 45/4/70 46/3/70 90/60/70
f 46/3/69 47/6/69 91/61/69
f 47/7/72 48/9/72 92/63/72
f 48/9/71 45/4/71 89/64/71
l 10 5
l 12 2
l 7 10
l 4 12
l 30 1
